<svg width="16" height="16" viewBox="0 0 16 16" fill="none" xmlns="http://www.w3.org/2000/svg">
<g clip-path="url(#clip0_151_571)">
<path d="M14.5267 0.666504H1.47341C1.02675 0.666504 0.666748 1.0265 0.666748 1.47317V14.5198C0.666748 14.9732 1.02675 15.3332 1.47341 15.3332H8.50008V9.65984H6.60008V7.43984H8.50675V5.8065C8.50675 3.91317 9.66675 2.87984 11.3534 2.87984C11.9201 2.87984 12.4934 2.9065 13.0601 2.9665V4.9465H11.8934C10.9734 4.9465 10.7934 5.37984 10.7934 6.0265V7.43984H12.9934L12.7067 9.65984H10.7801V15.3332H14.5201C14.9667 15.3332 15.3267 14.9732 15.3267 14.5265V1.47317C15.3334 1.0265 14.9734 0.666504 14.5267 0.666504Z" fill="white"/>
</g>
<defs>
<clipPath id="clip0_151_571">
<rect width="16" height="16" fill="white"/>
</clipPath>
</defs>
</svg>
