<svg width="120" height="40" viewBox="0 0 120 40" fill="none" xmlns="http://www.w3.org/2000/svg">
<g clip-path="url(#clip0_172_1627)">
<path d="M110.1 0H7.5C6.8 0 6.2 0.1 5.5 0.2C4.9 0.3 4.2 0.5 3.6 0.8C3 1.1 2.5 1.5 2 2C1.5 2.5 1.1 3 0.8 3.6C0.5 4.2 0.3 4.9 0.2 5.5C0.1 6.2 0 6.9 0 7.5V32.4C0 33.1 0.1 33.7 0.2 34.4C0.3 35.1 0.5 35.7 0.8 36.3C1.1 37 1.5 37.5 2 38C2.5 38.5 3 38.9 3.6 39.2C4.2 39.5 4.8 39.7 5.5 39.8C6.2 39.9 6.8 40 7.5 40H112.1C112.8 40 113.4 39.9 114.1 39.8C114.8 39.7 115.4 39.5 116 39.2C116.6 38.9 117.1 38.5 117.6 38C118.1 37.5 118.5 37 118.8 36.4C119.1 35.8 119.3 35.2 119.4 34.5C119.5 33.8 119.6 33.2 119.6 32.5V31.6V9.5V8.4V7.5C119.6 6.8 119.5 6.2 119.4 5.5C119.3 4.8 119.1 4.2 118.8 3.6C118.2 2.4 117.2 1.4 116 0.8C115.4 0.5 114.8 0.3 114.1 0.2C113.4 0.1 112.8 0 112.1 0H110.1V0Z" fill="#898989"/>
<path d="M8.39999 39.0999H7.49999C6.89999 39.0999 6.19999 38.9999 5.59999 38.8999C4.99999 38.7999 4.49999 38.5999 3.89999 38.3999C3.39999 38.0999 2.89999 37.7999 2.49999 37.3999C2.09999 36.9999 1.69999 36.4999 1.49999 35.9999C1.19999 35.4999 1.09999 34.8999 0.999988 34.2999C0.899988 33.6999 0.799988 33.0999 0.799988 32.3999V8.3999V7.4999C0.799988 6.8999 0.899988 6.1999 0.999988 5.5999C1.09999 5.0999 1.29999 4.4999 1.59999 3.9999C1.89999 3.4999 2.19999 2.9999 2.59999 2.5999C2.99999 2.1999 3.49999 1.8999 3.99999 1.5999C4.49999 1.2999 5.09999 1.1999 5.69999 1.0999C6.29999 0.999902 6.89999 0.899902 7.59999 0.899902H112.2C112.8 0.899902 113.4 0.999902 114.1 1.0999C114.7 1.1999 115.2 1.3999 115.8 1.5999C116.8 2.0999 117.7 2.9999 118.2 3.9999C118.5 4.4999 118.6 5.0999 118.7 5.5999C118.8 6.1999 118.9 6.8999 118.9 7.4999V32.3999C118.9 32.9999 118.8 33.5999 118.7 34.2999C118.6 34.8999 118.4 35.3999 118.2 35.9999C117.9 36.4999 117.6 36.9999 117.2 37.3999C116.8 37.7999 116.3 38.1999 115.8 38.3999C115.3 38.6999 114.7 38.8999 114.1 38.8999C113.5 38.9999 112.9 39.0999 112.2 39.0999H8.39999Z" fill="#121212"/>
<path d="M24.8 20.3002C24.8 18.6002 25.7 17.0002 27.2 16.1002C26.3 14.8002 24.8 14.0002 23.2 13.9002C21.5 13.7002 19.9 14.9002 19 14.9002C18.1 14.9002 16.8 13.9002 15.4 13.9002C13.5 14.0002 11.8 15.0002 10.9 16.6002C8.99999 19.9002 10.4 24.9002 12.3 27.6002C13.2 28.9002 14.3 30.4002 15.7 30.4002C17.1 30.3002 17.6 29.5002 19.3 29.5002C21 29.5002 21.4 30.4002 22.9 30.4002C24.4 30.4002 25.3 29.1002 26.2 27.7002C26.9 26.8002 27.4 25.7002 27.7 24.6002C25.9 24.0002 24.8 22.2002 24.8 20.3002ZM22 12.2002C22.8 11.2002 23.2 10.0002 23.1 8.7002C21.9 8.8002 20.7 9.4002 19.9 10.4002C19.1 11.3002 18.7 12.5002 18.8 13.8002C20.1 13.8002 21.2 13.2002 22 12.2002ZM42.3 27.1002H37.6L36.5 30.5002H34.5L39 18.1002H41L45.5 30.5002H43.5L42.3 27.1002ZM38.1 25.6002H41.9L40 20.1002H39.9L38.1 25.6002ZM55.2 26.0002C55.2 28.8002 53.7 30.6002 51.4 30.6002C50.2 30.7002 49.1 30.0002 48.6 29.0002V33.5002H46.7V21.5002H48.5V23.0002C49.1 22.0002 50.2 21.4002 51.4 21.4002C53.6 21.3002 55.2 23.2002 55.2 26.0002ZM53.2 26.0002C53.2 24.2002 52.3 23.0002 50.8 23.0002C49.4 23.0002 48.4 24.2002 48.4 26.0002C48.4 27.8002 49.4 29.0002 50.8 29.0002C52.3 29.0002 53.2 27.8002 53.2 26.0002ZM65.1 26.0002C65.1 28.8002 63.6 30.6002 61.3 30.6002C60.1 30.7002 59 30.0002 58.5 29.0002V33.5002H56.6V21.5002H58.4V23.0002C59 22.0002 60.1 21.4002 61.3 21.4002C63.6 21.3002 65.1 23.2002 65.1 26.0002ZM63.2 26.0002C63.2 24.2002 62.3 23.0002 60.8 23.0002C59.4 23.0002 58.4 24.2002 58.4 26.0002C58.4 27.8002 59.4 29.0002 60.8 29.0002C62.3 29.0002 63.2 27.8002 63.2 26.0002ZM71.7 27.0002C71.8 28.2002 73 29.0002 74.7 29.0002C76.3 29.0002 77.4 28.2002 77.4 27.1002C77.4 26.1002 76.7 25.6002 75.1 25.2002L73.5 24.8002C71.2 24.3002 70.2 23.2002 70.2 21.5002C70.2 19.4002 72.1 17.9002 74.7 17.9002C77.3 17.9002 79.1 19.4002 79.2 21.5002H77.3C77.2 20.3002 76.2 19.5002 74.7 19.5002C73.2 19.5002 72.2 20.3002 72.2 21.4002C72.2 22.3002 72.9 22.8002 74.5 23.2002L75.9 23.5002C78.4 24.1002 79.5 25.1002 79.5 26.9002C79.5 29.2002 77.7 30.7002 74.7 30.7002C71.9 30.7002 70.1 29.3002 70 27.0002H71.7ZM83.3 19.3002V21.4002H85V22.9002H83.3V27.9002C83.3 28.7002 83.6 29.0002 84.4 29.0002H85V30.5002C84.7 30.6002 84.3 30.6002 84 30.6002C82.2 30.6002 81.5 29.9002 81.5 28.2002V23.0002H80.2V21.5002H81.5V19.4002H83.3V19.3002ZM86.1 26.0002C86.1 23.2002 87.8 21.4002 90.4 21.4002C93 21.4002 94.7 23.2002 94.7 26.0002C94.7 28.9002 93 30.6002 90.4 30.6002C87.7 30.6002 86.1 28.8002 86.1 26.0002ZM92.8 26.0002C92.8 24.0002 91.9 22.9002 90.4 22.9002C88.9 22.9002 88 24.0002 88 26.0002C88 28.0002 88.9 29.1002 90.4 29.1002C91.9 29.1002 92.8 27.9002 92.8 26.0002ZM96.2 21.4002H98V23.0002C98.2 22.0002 99.2 21.3002 100.2 21.4002C100.4 21.4002 100.6 21.4002 100.8 21.5002V23.2002C100.5 23.1002 100.2 23.1002 100 23.1002C99 23.1002 98.1 23.9002 98.1 24.9002V30.6002H96.2V21.4002ZM109.4 27.8002C109.2 29.4002 107.6 30.6002 105.5 30.6002C102.9 30.6002 101.2 28.8002 101.2 26.0002C101.2 23.2002 102.8 21.3002 105.4 21.3002C107.9 21.3002 109.5 23.0002 109.5 25.8002V26.4002H103.1V26.5002C103 27.8002 103.9 28.9002 105.2 29.1002H105.5C106.4 29.2002 107.3 28.7002 107.6 27.8002H109.4ZM103.1 25.1002H107.6C107.7 23.9002 106.7 22.9002 105.5 22.8002H105.3C104.1 22.8002 103.1 23.8002 103.1 25.1002Z" fill="white"/>
<path d="M37.8 8.6999C39.3 8.5999 40.5 9.6999 40.6 11.0999V11.5999C40.6 13.4999 39.6 14.5999 37.8 14.5999H35.6V8.5999L37.8 8.6999ZM36.6 13.8999H37.7C38.7 13.9999 39.6 13.1999 39.7 12.0999V11.6999C39.8 10.6999 39.1 9.6999 38.1 9.5999H36.6V13.8999ZM41.7 12.3999C41.6 11.1999 42.5 10.1999 43.6 10.0999C44.8 9.9999 45.8 10.8999 45.9 11.9999V12.3999C46 13.5999 45.2 14.5999 44 14.6999C42.8 14.7999 41.8 13.9999 41.7 12.7999V12.3999ZM45 12.3999C45 11.3999 44.6 10.8999 43.8 10.8999C43 10.8999 42.6 11.4999 42.6 12.3999C42.6 13.3999 43 13.9999 43.8 13.9999C44.6 13.9999 45 13.3999 45 12.3999ZM51.6 14.6999H50.7L49.8 11.3999H49.7L48.8 14.6999H47.9L46.7 10.1999H47.6L48.4 13.5999H48.5L49.4 10.1999H50.3L51.2 13.5999H51.3L52.1 10.1999H53L51.6 14.6999ZM53.9 10.1999H54.8V10.8999H54.9C55.1 10.3999 55.7 10.0999 56.2 10.0999C57 9.9999 57.7 10.5999 57.8 11.4999V14.6999H56.9V11.9999C56.9 11.2999 56.6 10.8999 55.9 10.8999C55.3 10.8999 54.8 11.2999 54.8 11.8999V14.6999H53.9V10.1999ZM59.1 8.3999H60V14.6999H59.1V8.3999ZM61.2 12.3999C61.1 11.1999 61.9 10.1999 63.1 10.0999C64.3 9.9999 65.3 10.7999 65.4 11.9999V12.3999C65.5 13.5999 64.7 14.5999 63.5 14.6999C62.3 14.7999 61.3 13.9999 61.2 12.7999V12.3999ZM64.6 12.3999C64.6 11.3999 64.2 10.8999 63.4 10.8999C62.6 10.8999 62.2 11.4999 62.2 12.3999C62.2 13.3999 62.6 13.9999 63.4 13.9999C64.1 13.9999 64.6 13.3999 64.6 12.3999ZM66.4 13.3999C66.4 12.5999 67 12.0999 68.1 12.0999L69.3 11.9999V11.5999C69.3 11.0999 69 10.8999 68.4 10.8999C67.9 10.8999 67.6 11.0999 67.5 11.3999H66.6C66.7 10.5999 67.4 10.0999 68.4 10.0999C69.5 10.0999 70.2 10.6999 70.2 11.5999V14.6999H69.3V14.0999H69.2C68.9 14.5999 68.4 14.7999 67.8 14.7999C67.1 14.8999 66.4 14.2999 66.3 13.5999C66.4 13.4999 66.4 13.4999 66.4 13.3999ZM69.3 12.9999V12.5999L68.2 12.6999C67.6 12.6999 67.3 12.9999 67.3 13.2999C67.3 13.6999 67.7 13.8999 68.1 13.8999C68.7 14.0999 69.2 13.6999 69.3 12.9999C69.3 13.0999 69.3 13.0999 69.3 12.9999ZM71.3 12.3999C71.3 10.9999 72 10.0999 73.2 10.0999C73.8 10.0999 74.3 10.3999 74.6 10.8999H74.7V8.3999H75.6V14.6999H74.7V13.9999H74.6C74.3 14.4999 73.8 14.7999 73.2 14.7999C72.1 14.7999 71.3 13.8999 71.3 12.3999ZM72.3 12.3999C72.3 13.3999 72.7 13.8999 73.5 13.8999C74.3 13.8999 74.7 13.2999 74.7 12.3999C74.7 11.4999 74.2 10.8999 73.5 10.8999C72.7 10.8999 72.3 11.4999 72.3 12.3999ZM79.2 12.3999C79.1 11.1999 79.9 10.1999 81.1 10.0999C82.3 9.9999 83.3 10.7999 83.4 11.9999V12.3999C83.5 13.5999 82.7 14.5999 81.5 14.6999C80.3 14.7999 79.3 13.9999 79.2 12.7999V12.3999ZM82.6 12.3999C82.6 11.3999 82.2 10.8999 81.4 10.8999C80.6 10.8999 80.2 11.4999 80.2 12.3999C80.2 13.3999 80.6 13.9999 81.4 13.9999C82.1 13.9999 82.6 13.3999 82.6 12.3999ZM84.7 10.1999H85.6V10.8999H85.7C85.9 10.3999 86.5 10.0999 87 10.0999C87.8 9.9999 88.5 10.5999 88.6 11.4999V14.6999H87.7V11.9999C87.7 11.2999 87.4 10.8999 86.7 10.8999C86.1 10.8999 85.6 11.2999 85.6 11.8999V14.6999H84.7V10.1999ZM93.5 9.0999V10.1999H94.5V10.9999H93.5V13.2999C93.5 13.7999 93.7 13.9999 94.1 13.9999H94.4V14.6999H93.9C92.9 14.6999 92.5 14.3999 92.5 13.4999V10.9999H91.8V10.2999H92.5V9.0999H93.5ZM95.7 8.3999H96.6V10.8999H96.7C96.9 10.3999 97.5 9.9999 98.1 10.0999C98.9 10.0999 99.6 10.6999 99.7 11.4999V14.6999H98.8V11.9999C98.8 11.2999 98.5 10.8999 97.8 10.8999C97.2 10.8999 96.7 11.2999 96.7 11.8999V14.6999H95.8V8.3999H95.7ZM104.8 13.4999C104.6 14.2999 103.7 14.8999 102.9 14.7999C101.8 14.7999 100.8 13.8999 100.8 12.7999V12.4999C100.6 11.3999 101.4 10.2999 102.6 10.1999H102.9C104.2 10.1999 104.9 11.0999 104.9 12.4999V12.7999H101.7V12.8999C101.6 13.5999 102.1 14.0999 102.8 14.1999H102.9C103.3 14.2999 103.8 13.9999 104 13.6999H104.8V13.4999ZM101.6 11.9999H103.9C103.9 11.3999 103.5 10.8999 102.9 10.7999H102.8C102.2 10.8999 101.6 11.3999 101.6 11.9999Z" fill="white"/>
</g>
<defs>
<clipPath id="clip0_172_1627">
<rect width="119.7" height="40" fill="white"/>
</clipPath>
</defs>
</svg>


